<svg xmlns="http://www.w3.org/2000/svg" viewBox="0 0 100 100"><g transform="translate(8 26.70) scale(0.8400)"><path d="M 24.93 0.03 C 22.47 0.15, 20.41 0.52, 18.2 1.24 C 11.95 3.26, 6.69 7.59, 3.46 13.39 C 1.85 16.28, 0.78 19.48, 0.29 22.91 C 0.11 24.2, 0.03 25.3, 0.03 26.83 C 0.03 28.34, 0.07 29.07, 0.24 30.43 C 0.85 35.27, 2.89 40.17, 5.96 44.14 C 6.72 45.12, 7.3 45.77, 8.36 46.83 C 9.83 48.29, 11.15 49.37, 12.79 50.46 C 19.09 54.62, 26.71 56.26, 34.17 55.05 C 39.63 54.16, 44.9 51.63, 49.16 47.86 C 50.24 46.91, 55.14 42.18, 59.58 37.8 L 62.04 35.39 63.12 36.45 C 64.7 38, 65.44 38.66, 66.57 39.53 C 68.31 40.87, 69.2 41.4, 71.08 42.24 C 74.36 43.68, 76.84 44.27, 80 44.36 C 84.74 44.48, 89.28 43.02, 92.74 40.25 C 93.49 39.66, 94.09 39.09, 94.8 38.32 C 97.7 35.17, 99.34 31.56, 99.86 27.19 C 99.91 26.84, 99.93 26.08, 99.93 25.02 C 99.92 23.22, 99.87 22.58, 99.56 21.08 C 98.72 16.9, 96.55 13.11, 93.41 10.38 C 90.3 7.66, 86.89 6.13, 82.72 5.59 C 81.75 5.47, 78.97 5.47, 78 5.59 C 73.83 6.13, 70.36 7.67, 67.38 10.29 C 67.09 10.55, 64.45 13.15, 61.51 16.08 C 58.57 19, 56.15 21.39, 56.14 21.39 C 56.12 21.39, 55.5 20.64, 54.75 19.72 C 50.34 14.3, 46.43 9.7, 45.07 8.34 C 40.84 4.11, 35.08 1.14, 29.42 0.29 C 28.12 0.1, 26.02 -0.03, 24.93 0.03 M 26.61 7.94 C 24.46 8.14, 21.91 8.97, 19.88 10.14 C 16.91 11.85, 14.49 14.46, 13.02 17.53 C 12.2 19.25, 11.67 21.05, 11.41 22.99 C 11.31 23.8, 11.27 25.65, 11.34 26.5 C 11.67 30.33, 13.25 33.9, 15.84 36.67 C 17.41 38.36, 18.94 39.51, 20.84 40.43 C 25.06 42.49, 29.99 42.73, 34.42 41.08 C 35.19 40.8, 36.7 40.05, 37.36 39.64 C 38.97 38.62, 39.13 38.47, 46.32 31.26 C 49.89 27.68, 52.81 24.73, 52.81 24.71 C 52.81 24.63, 48.31 20.05, 47.35 19.16 C 43.87 15.92, 40.49 13.07, 38.72 11.88 C 37.44 11.03, 35.25 9.86, 33.74 9.21 C 32.56 8.71, 30.96 8.24, 29.86 8.06 C 28.82 7.89, 27.6 7.85, 26.61 7.94 M 80.72 18.66 C 79.9 18.72, 78.95 18.99, 78.22 19.35 C 77.3 19.81, 76.73 20.32, 74.86 22.31 C 73.64 23.6, 69.78 27.57, 67.34 30.03 C 66.19 31.2, 65.24 32.18, 65.24 32.2 C 65.24 32.25, 66.3 33.21, 66.92 33.72 C 69.05 35.48, 71.89 36.87, 74.25 37.33 C 75.48 37.57, 76.98 37.61, 78.48 37.43 C 81.35 37.09, 83.96 35.85, 85.92 33.9 C 87.61 32.21, 88.64 30.09, 88.89 27.78 C 89.11 25.82, 88.57 23.62, 87.49 22.05 C 85.91 19.77, 83.3 18.46, 80.72 18.66" fill="#1e91f9" fill-rule="evenodd"/></g></svg>
